PathFileType	4	(X/Y/Z)	C:\Users\WrightLab\Desktop\Jo\P1_boxCal34.trc
DataRate	CameraRate	NumFrames	NumMarkers	Units	OrigDataRate	OrigDataStartFrame	OrigNumFrames
100.00	100.00	       16	19	mm	100.00	273	       544
Frame#	Time	Headset_Front			Headset_Back			Headset_Left			Headset_Right			Left_Shoulder			Right_Shoulder			Sternum			C7			Left Elbow			Right Elbow			Left Wrist			Right Wrist			Left ASIS			Right ASIS			S2			Left Knee			Right Knee			Left Ankle			Right Ankle			
		X1	Y1	Z1	X2	Y2	Z2	X3	Y3	Z3	X4	Y4	Z4	X5	Y5	Z5	X6	Y6	Z6	X7	Y7	Z7	X8	Y8	Z8	X9	Y9	Z9	X10	Y10	Z10	X11	Y11	Z11	X12	Y12	Z12	X13	Y13	Z13	X14	Y14	Z14	X15	Y15	Z15	X16	Y16	Z16	X17	Y17	Z17	X18	Y18	Z18	X19	Y19	Z19	

273	2.720	-271.61584	1385.31116	773.91107	-404.05008	1515.83118	534.92426	-254.11188	1454.07935	577.65234	-412.87161	1424.38110	739.57166	-228.01111	1262.94910	454.63168	-520.00604	1266.84265	705.51941	-300.34567	1172.63599	693.13495	-440.15045	1272.57776	487.19107	-183.21973	935.84119	403.84308	-632.14893	1005.90094	726.16779	-82.29028	765.78998	516.55408	-661.24231	788.19641	838.55353	-220.47180	885.86188	621.59467	-364.61139	886.10974	762.48859	-516.53674	897.55438	459.72107	-348.31903	449.84714	430.34836	-403.04703	490.09604	801.87769	-485.45255	101.47351	378.40521	-252.82817	142.57195	906.60858	
274	2.730	-267.12534	1384.23999	783.91260	-398.96286	1514.07581	544.77551				-407.30981	1422.80859	749.41473	-221.18404	1262.38623	464.71405	-514.03925	1264.76062	715.16992	-293.62405	1170.18518	704.27026	-434.01587	1271.76868	496.48215	-177.31732	935.29608	414.16061	-626.19708	1003.48730	734.68555	-77.50368	763.71692	524.19012	-656.29938	785.83093	846.91998	-213.92755	884.12720	630.59760	-357.03781	884.33020	771.96637	-510.12143	895.40741	468.77338	-344.47107	449.76697	438.05640	-392.75015	488.41714	810.14233	-486.76154	104.31825	378.44449	-241.24773	139.12830	909.43518	
275	2.740	-261.57996	1384.13159	796.45758	-394.78134	1513.21619	554.21240	-243.25108	1451.73096	602.27936	-402.71561	1421.88428	759.54156	-214.74535	1261.49817	475.26471	-508.09875	1262.42065	724.62573	-288.93494	1167.77356	710.34601	-427.37698	1270.25317	506.77682	-171.16673	934.58386	422.71756	-620.04895	1001.00201	743.55585	-72.27624	762.46228	531.91742	-651.26050	783.93860	855.11584	-207.26868	883.29297	639.45886	-349.19763	882.28955	782.04333	-503.71967	894.13556	478.00049	-340.04025	449.25858	445.48367	-383.25705	486.80609	819.09351	-486.26547	105.97249	379.40897	-231.39609	133.57237	910.83075	
276	2.750	-256.64075	1382.63977	806.02136	-388.49728	1510.93909	564.56555	-238.19446	1450.63513	607.97540	-397.76151	1420.52319	769.40173	-208.39987	1260.97412	486.08521	-502.29742	1260.48901	734.42804	-281.68182	1167.92688	723.68512	-421.35321	1269.59326	516.11224	-164.94240	934.38977	433.34119	-614.84705	999.30072	752.59216	-67.44389	760.87061	539.15594	-645.86487	781.80908	863.63330	-199.88217	881.52161	648.95966	-341.95731	880.58301	791.83643	-497.83347	892.88104	488.18076	-335.65237	449.09680	453.98419	-373.09296	485.05838	827.78552	-485.65860	108.84415	379.55576	-223.73346	130.12518	912.95471	
277	2.760	-251.69582	1382.42847	817.33038	-383.07724	1509.55176	574.38568	-232.38519	1449.82117	624.76978	-392.08096	1419.43176	779.65381	-202.12936	1261.03833	496.01920	-496.91959	1258.72681	744.61414	-275.43961	1165.37769	732.40491	-415.18707	1268.49463	526.56781	-159.97794	934.03906	443.49332	-608.96655	997.04413	761.16473	-62.06195	759.39496	546.26923	-640.22467	779.56860	871.89044	-192.08698	881.49457	658.01306	-334.44760	879.10724	801.84009	-490.49435	892.24652	497.31677	-330.14758	448.75079	462.46616	-361.33871	484.90744	835.47253	-485.47906	113.75713	379.23822	-215.31781	127.93181	912.75598	
278	2.770	-244.36465	1383.32581	830.20435	-377.92807	1508.25842	584.70996	-227.46997	1449.15332	628.36011	-387.78259	1418.54370	790.03992	-196.11369	1260.60742	507.25961	-491.06641	1256.85974	754.47974	-271.11322	1164.01025	741.94708	-409.28012	1267.51160	537.13971	-153.84804	934.14612	450.95984	-602.92767	995.21771	769.84930	-57.09346	758.31860	552.47424	-634.91968	777.61163	879.70880	-185.25121	880.45734	667.30768	-326.40439	878.07788	811.79022	-483.28580	890.51526	507.47064	-323.66788	448.14703	471.30304	-350.24622	484.05563	845.59900	-482.85571	116.79830	381.32965	-207.19908	123.13226	913.01862	
279	2.780	-240.96985	1381.71680	838.92627	-372.58823	1507.08301	594.76868	-222.26431	1448.68835	638.83337	-381.89240	1417.64917	800.16736	-190.17960	1260.55627	518.01044	-485.81519	1255.55127	764.91132	-263.43753	1165.14246	755.66357	-403.63495	1266.97058	547.60065	-148.51903	934.62415	461.08398	-596.74915	992.87042	778.40411	-52.07726	757.69391	559.21527	-629.24896	775.19263	887.55811	-177.03279	880.48767	676.90454	-318.77493	877.36816	821.98206	-475.80145	889.31659	518.36438	-317.43719	446.41077	481.68509	-338.94440	482.12042	854.35394	-481.15280	121.12769	383.52493	-146.03195	124.72635	884.75684	
280	2.790	-235.62881	1381.96631	849.51007	-367.21167	1506.26050	604.91113	-216.37357	1448.07849	654.09973	-376.72626	1417.44385	810.44635	-184.70146	1260.72534	529.06665	-480.46207	1254.02087	775.70135	-258.05298	1163.57153	765.65698	-397.71713	1265.90173	558.62286	-142.31992	935.46454	470.85211	-590.77301	991.65833	787.15851	-46.84500	757.05072	565.31885	-623.57880	773.50653	895.38342	-168.94881	880.27191	686.11725	-310.47089	876.91718	831.93243	-467.69116	888.13635	529.28046	-308.99661	445.88367	491.90356	-327.55383	480.37494	863.62701	-476.62781	125.90903	383.98978	-499.80368	87.91538	497.70959	
281	2.800	-230.66525	1382.18030	859.75146	-361.78851	1505.70862	615.14716	-210.74791	1447.78162	660.96429	-371.38196	1417.36523	820.99658	-178.68001	1260.85547	540.53265	-475.38675	1253.14832	786.67322	-251.87347	1162.99695	776.46240	-392.28839	1265.18115	569.38373	-137.77783	935.59589	480.69495	-584.56201	989.92334	795.93176	-41.87395	756.55786	570.62646	-618.13391	771.19470	902.71655	-161.20294	880.92291	695.44666	-301.85757	876.41095	842.05310	-460.24094	887.36542	541.17712	-298.80618	445.66129	501.26810	-316.76938	478.35919	872.82336	-472.09271	131.58386	386.50800	-532.41602	699.76611	890.29962	
282	2.810	-224.14555	1382.65906	871.77057	-356.40784	1505.69226	625.77002	-205.91106	1447.97595	671.37189	-365.94791	1417.40100	831.66064	-173.59877	1261.88049	550.81128	-469.68552	1251.97864	797.43671	-245.54594	1164.55481	786.90295	-387.09402	1265.12280	579.93140	-133.44055	936.67133	489.87112	-578.81079	988.55127	804.71875	-36.36026	756.95032	576.06018	-611.98071	769.09283	909.89917	-153.53944	881.34052	705.32477	-293.15808	877.04138	852.87659	-452.68597	886.13226	553.40350	-288.37769	445.81049	510.81198	-306.99542	476.08994	881.79254	-465.61737	136.50179	389.20908	-493.28888	91.19672	500.47864	
283	2.820	-219.59416	1383.69055	881.02551	-351.03043	1505.93701	636.19476	-200.02176	1448.53955	686.64984	-360.29871	1418.13025	842.18268	-168.58923	1262.35608	560.87006	-463.84796	1251.34534	808.45325	-239.72661	1165.11768	797.26318	-381.41919	1264.73560	591.21851	-128.27963	937.84082	499.12308	-572.45087	987.27924	813.79382	-31.21305	757.41077	580.93494	-605.13568	766.57043	917.25311	-145.42216	882.11322	715.70898	-284.03290	877.21094	863.76520	-444.49570	884.99695	566.25067	-276.37988	445.56833	519.64270	-298.31137	475.34039	890.81622	-458.28131	142.93419	391.82248	-486.94940	94.06827	503.41666	
284	2.830	-214.17038	1384.81165	892.08990	-345.50156	1506.37878	646.62329	-194.61571	1449.54236	693.33374	-355.44467	1419.76367	853.41901	-163.50871	1263.45630	570.77405	-457.79910	1250.86670	819.67670	-233.20760	1165.15039	809.24976	-376.06461	1264.48120	603.27771	-124.16905	938.39764	508.57562	-565.89209	986.31085	822.45667	-25.54991	757.95490	586.13116	-599.67413	765.40491	924.27832	-136.76723	884.24567	725.45563	-274.19305	876.79742	873.96198	-437.41577	884.41412	579.16431	-262.24350	445.38449	530.08307	-288.66922	476.29102	903.32574	-448.85687	148.87337	396.73810				
285	2.840	-208.29620	1386.27295	903.98859	-341.53204	1507.43945	656.96960	-189.47461	1450.64197	703.45313	-349.49243	1420.66772	864.27692	-158.22430	1264.97888	580.83423	-451.75220	1251.05530	831.29614	-226.53929	1165.88062	817.61469	-370.77441	1265.47168	613.97504	-119.97646	940.07257	516.89435	-559.50653	985.91620	831.98694	-20.17402	759.07825	590.97003	-593.19019	764.31647	931.47180	-129.36980	885.98132	736.26392	-265.31677	877.30927	884.64325	-429.81873	884.67822	591.71686	-246.78256	444.54929	540.92517	-281.31607	476.94629	912.87476	-438.94919	154.75516	402.37698	-4.51282	739.25366	720.21082	
286	2.850	-202.36240	1387.61450	913.51904	-334.93008	1506.77051	667.63495	-183.84033	1450.68066	714.78900	-343.57242	1421.31506	874.49518	-153.73581	1266.82629	589.78357	-444.88535	1251.17188	842.70636	-219.69397	1168.73364	830.49524	-365.44052	1266.39624	625.14832	-116.21552	942.02325	524.82819	-552.61462	985.61194	841.25140	-15.17455	760.51465	594.48755	-586.44904	763.16833	938.66107	-122.81492	887.56049	745.04144	-256.39178	878.34052	895.88751	-423.03952	885.09570	603.51636	-229.71028	443.53830	551.97906	-273.75537	478.99326	922.08936	-426.31506	161.32755	408.87357	-463.57217	101.65250	513.67828	
287	2.860	-197.26289	1388.81750	924.70673	-329.77185	1506.62720	677.88513	-178.10547	1453.00525	725.08630	-338.56198	1421.69092	885.16315	-148.54497	1268.34009	599.20941	-438.13306	1251.52209	854.55084	-213.37923	1168.90466	839.01611	-360.48618	1267.25098	635.94031	-113.37285	943.84631	532.85840	-545.55157	986.08154	850.65082	-9.84577	762.11169	598.58221	-578.90302	762.37592	945.85596	-115.59805	890.19336	755.86658	-248.46016	879.97919	906.98224	-416.82562	886.01758	614.25739	-212.10982	442.39664	564.34692	-265.92532	483.02704	932.55127	-413.89996	168.31454	416.17041				
288	2.870	-189.89124	1391.97986	938.00391	-324.45905	1506.79504	688.04596	-172.43143	1453.10754	739.61926	-333.12680	1421.84790	895.05151	-143.59106	1270.55225	607.60303	-430.58530	1251.99463	865.44720	-208.40404	1169.57471	846.61383	-355.29761	1268.82813	646.32764	-109.58215	945.48981	539.75061	-538.11908	986.80542	859.96405	-4.21026	763.92706	602.60327	-572.16913	762.91193	953.70123	-109.42558	891.18896	765.26178	-240.62521	881.47980	917.58557	-410.50592	887.17657	625.22375	-193.25557	440.62793	577.30127	-259.15201	486.05368	940.50708	-400.41870	175.94110	423.22192	-443.81735	112.24525	527.55261	
